<mxfile host="app.diagrams.net" agent="Mozilla/5.0 (Macintosh; Intel Mac OS X 10_15_7) AppleWebKit/537.36 (KHTML, like Gecko) Chrome/131.0.0.0 Safari/537.36" version="26.0.6">
  <diagram name="Page-1" id="LHnwR9ohENxwGmghNl4W">
    <mxGraphModel dx="1088" dy="627" grid="1" gridSize="10" guides="1" tooltips="1" connect="1" arrows="1" fold="1" page="1" pageScale="1" pageWidth="827" pageHeight="1169" math="0" shadow="0">
      <root>
        <mxCell id="0" />
        <mxCell id="1" parent="0" />
        <mxCell id="E_dDcokZDH6JsFaDzTF1-21" value="" style="rounded=0;whiteSpace=wrap;html=1;fillColor=none;" vertex="1" parent="1">
          <mxGeometry x="120" y="920" width="640" height="360" as="geometry" />
        </mxCell>
        <mxCell id="E_dDcokZDH6JsFaDzTF1-9" value="" style="rounded=0;whiteSpace=wrap;html=1;fillColor=none;" vertex="1" parent="1">
          <mxGeometry x="120" y="320" width="640" height="360" as="geometry" />
        </mxCell>
        <mxCell id="E_dDcokZDH6JsFaDzTF1-10" style="edgeStyle=orthogonalEdgeStyle;rounded=0;orthogonalLoop=1;jettySize=auto;html=1;entryX=0.5;entryY=0;entryDx=0;entryDy=0;" edge="1" parent="1" source="E_dDcokZDH6JsFaDzTF1-1" target="E_dDcokZDH6JsFaDzTF1-2">
          <mxGeometry relative="1" as="geometry">
            <Array as="points">
              <mxPoint x="180" y="240" />
              <mxPoint x="220" y="240" />
            </Array>
          </mxGeometry>
        </mxCell>
        <mxCell id="E_dDcokZDH6JsFaDzTF1-11" value="&lt;div style=&quot;&quot;&gt;FE Files (Update, Save) Flow:&lt;br&gt;&lt;/div&gt;1. PROGRAM ID&lt;br&gt;2. FILE KEY" style="edgeLabel;html=1;align=left;verticalAlign=middle;resizable=0;points=[];" vertex="1" connectable="0" parent="E_dDcokZDH6JsFaDzTF1-10">
          <mxGeometry x="-0.4824" relative="1" as="geometry">
            <mxPoint x="-40" y="23" as="offset" />
          </mxGeometry>
        </mxCell>
        <mxCell id="E_dDcokZDH6JsFaDzTF1-51" value="2. Get Update Temp File with Local Updates&lt;br&gt;3. Get File Key on Save (Prerequisite: Temp File URL)" style="edgeLabel;html=1;align=left;verticalAlign=middle;resizable=0;points=[];" vertex="1" connectable="0" parent="E_dDcokZDH6JsFaDzTF1-10">
          <mxGeometry x="-0.8515" relative="1" as="geometry">
            <mxPoint x="-90" as="offset" />
          </mxGeometry>
        </mxCell>
        <mxCell id="E_dDcokZDH6JsFaDzTF1-45" style="edgeStyle=orthogonalEdgeStyle;rounded=0;orthogonalLoop=1;jettySize=auto;html=1;entryX=0;entryY=0.25;entryDx=0;entryDy=0;exitX=1;exitY=0.25;exitDx=0;exitDy=0;" edge="1" parent="1" source="E_dDcokZDH6JsFaDzTF1-1" target="E_dDcokZDH6JsFaDzTF1-44">
          <mxGeometry relative="1" as="geometry" />
        </mxCell>
        <mxCell id="E_dDcokZDH6JsFaDzTF1-48" value="&amp;nbsp;1. GET Client, Program &amp;amp; Step/Template data" style="edgeLabel;html=1;align=center;verticalAlign=middle;resizable=0;points=[];" vertex="1" connectable="0" parent="E_dDcokZDH6JsFaDzTF1-45">
          <mxGeometry x="-0.0067" relative="1" as="geometry">
            <mxPoint x="-8" as="offset" />
          </mxGeometry>
        </mxCell>
        <mxCell id="E_dDcokZDH6JsFaDzTF1-46" style="edgeStyle=orthogonalEdgeStyle;rounded=0;orthogonalLoop=1;jettySize=auto;html=1;entryX=0;entryY=0.5;entryDx=0;entryDy=0;" edge="1" parent="1" source="E_dDcokZDH6JsFaDzTF1-1" target="E_dDcokZDH6JsFaDzTF1-44">
          <mxGeometry relative="1" as="geometry" />
        </mxCell>
        <mxCell id="E_dDcokZDH6JsFaDzTF1-49" value="&amp;nbsp;4. Save Step/Template, (Prerequisite: FE File Key)" style="edgeLabel;html=1;align=center;verticalAlign=middle;resizable=0;points=[];" vertex="1" connectable="0" parent="E_dDcokZDH6JsFaDzTF1-46">
          <mxGeometry x="-0.0108" y="-2" relative="1" as="geometry">
            <mxPoint x="3" y="-2" as="offset" />
          </mxGeometry>
        </mxCell>
        <mxCell id="E_dDcokZDH6JsFaDzTF1-47" style="edgeStyle=orthogonalEdgeStyle;rounded=0;orthogonalLoop=1;jettySize=auto;html=1;entryX=0;entryY=0.75;entryDx=0;entryDy=0;exitX=1;exitY=0.75;exitDx=0;exitDy=0;" edge="1" parent="1" source="E_dDcokZDH6JsFaDzTF1-1" target="E_dDcokZDH6JsFaDzTF1-44">
          <mxGeometry relative="1" as="geometry" />
        </mxCell>
        <mxCell id="E_dDcokZDH6JsFaDzTF1-50" value="&amp;nbsp;5. Publish Program Updates" style="edgeLabel;html=1;align=center;verticalAlign=middle;resizable=0;points=[];" vertex="1" connectable="0" parent="E_dDcokZDH6JsFaDzTF1-47">
          <mxGeometry x="0.01" y="-1" relative="1" as="geometry">
            <mxPoint x="-52" as="offset" />
          </mxGeometry>
        </mxCell>
        <mxCell id="E_dDcokZDH6JsFaDzTF1-1" value="STUDIO&lt;br&gt;FE" style="rounded=0;whiteSpace=wrap;html=1;fillColor=none;" vertex="1" parent="1">
          <mxGeometry x="120" y="130" width="120" height="60" as="geometry" />
        </mxCell>
        <mxCell id="E_dDcokZDH6JsFaDzTF1-12" style="edgeStyle=orthogonalEdgeStyle;rounded=0;orthogonalLoop=1;jettySize=auto;html=1;entryX=0;entryY=0.5;entryDx=0;entryDy=0;" edge="1" parent="1" source="E_dDcokZDH6JsFaDzTF1-2" target="E_dDcokZDH6JsFaDzTF1-5">
          <mxGeometry relative="1" as="geometry">
            <Array as="points">
              <mxPoint x="390" y="400" />
              <mxPoint x="390" y="360" />
            </Array>
          </mxGeometry>
        </mxCell>
        <mxCell id="E_dDcokZDH6JsFaDzTF1-13" style="edgeStyle=orthogonalEdgeStyle;rounded=0;orthogonalLoop=1;jettySize=auto;html=1;entryX=0;entryY=0.5;entryDx=0;entryDy=0;" edge="1" parent="1" source="E_dDcokZDH6JsFaDzTF1-2" target="E_dDcokZDH6JsFaDzTF1-6">
          <mxGeometry relative="1" as="geometry">
            <Array as="points">
              <mxPoint x="400" y="400" />
              <mxPoint x="400" y="440" />
            </Array>
          </mxGeometry>
        </mxCell>
        <mxCell id="E_dDcokZDH6JsFaDzTF1-16" style="edgeStyle=orthogonalEdgeStyle;rounded=0;orthogonalLoop=1;jettySize=auto;html=1;entryX=0;entryY=0.5;entryDx=0;entryDy=0;" edge="1" parent="1" source="E_dDcokZDH6JsFaDzTF1-2" target="E_dDcokZDH6JsFaDzTF1-15">
          <mxGeometry relative="1" as="geometry">
            <Array as="points">
              <mxPoint x="370" y="400" />
              <mxPoint x="370" y="520" />
            </Array>
          </mxGeometry>
        </mxCell>
        <mxCell id="E_dDcokZDH6JsFaDzTF1-18" value="File: (Get, Save)" style="edgeLabel;html=1;align=center;verticalAlign=middle;resizable=0;points=[];" vertex="1" connectable="0" parent="E_dDcokZDH6JsFaDzTF1-16">
          <mxGeometry x="-0.7312" y="-1" relative="1" as="geometry">
            <mxPoint as="offset" />
          </mxGeometry>
        </mxCell>
        <mxCell id="E_dDcokZDH6JsFaDzTF1-54" value="Get Saved File on Load&lt;br&gt;Move Temp File on Save" style="edgeLabel;html=1;align=center;verticalAlign=middle;resizable=0;points=[];" vertex="1" connectable="0" parent="E_dDcokZDH6JsFaDzTF1-16">
          <mxGeometry x="0.1125" relative="1" as="geometry">
            <mxPoint y="42" as="offset" />
          </mxGeometry>
        </mxCell>
        <mxCell id="E_dDcokZDH6JsFaDzTF1-2" value="STUDIO&lt;br&gt;NODE BE" style="rounded=0;whiteSpace=wrap;html=1;fillColor=none;" vertex="1" parent="1">
          <mxGeometry x="160" y="370" width="120" height="60" as="geometry" />
        </mxCell>
        <mxCell id="E_dDcokZDH6JsFaDzTF1-3" value="Node DB&lt;br&gt;(Mongo)" style="shape=cylinder3;whiteSpace=wrap;html=1;boundedLbl=1;backgroundOutline=1;size=15;" vertex="1" parent="1">
          <mxGeometry x="660" y="570" width="60" height="80" as="geometry" />
        </mxCell>
        <mxCell id="E_dDcokZDH6JsFaDzTF1-4" value="CDN&lt;br&gt;Storage" style="shape=cylinder3;whiteSpace=wrap;html=1;boundedLbl=1;backgroundOutline=1;size=15;" vertex="1" parent="1">
          <mxGeometry x="660" y="400" width="60" height="80" as="geometry" />
        </mxCell>
        <mxCell id="E_dDcokZDH6JsFaDzTF1-5" value="Default" style="rounded=0;whiteSpace=wrap;html=1;fillColor=none;" vertex="1" parent="1">
          <mxGeometry x="480" y="330" width="120" height="60" as="geometry" />
        </mxCell>
        <mxCell id="E_dDcokZDH6JsFaDzTF1-6" value="Temp File" style="rounded=0;whiteSpace=wrap;html=1;fillColor=none;" vertex="1" parent="1">
          <mxGeometry x="480" y="410" width="120" height="60" as="geometry" />
        </mxCell>
        <mxCell id="E_dDcokZDH6JsFaDzTF1-14" style="edgeStyle=orthogonalEdgeStyle;rounded=0;orthogonalLoop=1;jettySize=auto;html=1;entryX=0;entryY=0.5;entryDx=0;entryDy=0;entryPerimeter=0;" edge="1" parent="1" source="E_dDcokZDH6JsFaDzTF1-2" target="E_dDcokZDH6JsFaDzTF1-3">
          <mxGeometry relative="1" as="geometry">
            <Array as="points">
              <mxPoint x="220" y="610" />
            </Array>
          </mxGeometry>
        </mxCell>
        <mxCell id="E_dDcokZDH6JsFaDzTF1-19" value="Store Record (File Key, Program Id, File Path, Timestamp, File Name/Desc)" style="edgeLabel;html=1;align=center;verticalAlign=middle;resizable=0;points=[];" vertex="1" connectable="0" parent="E_dDcokZDH6JsFaDzTF1-14">
          <mxGeometry x="-0.4161" y="1" relative="1" as="geometry">
            <mxPoint x="99" y="1" as="offset" />
          </mxGeometry>
        </mxCell>
        <mxCell id="E_dDcokZDH6JsFaDzTF1-15" value="Program" style="rounded=0;whiteSpace=wrap;html=1;fillColor=none;" vertex="1" parent="1">
          <mxGeometry x="480" y="490" width="120" height="60" as="geometry" />
        </mxCell>
        <mxCell id="E_dDcokZDH6JsFaDzTF1-25" style="edgeStyle=orthogonalEdgeStyle;rounded=0;orthogonalLoop=1;jettySize=auto;html=1;entryX=0.5;entryY=0;entryDx=0;entryDy=0;" edge="1" parent="1" source="E_dDcokZDH6JsFaDzTF1-20" target="E_dDcokZDH6JsFaDzTF1-24">
          <mxGeometry relative="1" as="geometry">
            <Array as="points">
              <mxPoint x="180" y="880" />
              <mxPoint x="220" y="880" />
            </Array>
          </mxGeometry>
        </mxCell>
        <mxCell id="E_dDcokZDH6JsFaDzTF1-26" value="1. PROGRAM ID&lt;br&gt;2. FILE KEY" style="edgeLabel;html=1;align=left;verticalAlign=middle;resizable=0;points=[];" vertex="1" connectable="0" parent="E_dDcokZDH6JsFaDzTF1-25">
          <mxGeometry x="-0.6111" relative="1" as="geometry">
            <mxPoint x="-40" y="-5" as="offset" />
          </mxGeometry>
        </mxCell>
        <mxCell id="E_dDcokZDH6JsFaDzTF1-20" value="CHECKOUT&lt;br&gt;BE" style="rounded=0;whiteSpace=wrap;html=1;fillColor=none;" vertex="1" parent="1">
          <mxGeometry x="120" y="770" width="120" height="60" as="geometry" />
        </mxCell>
        <mxCell id="E_dDcokZDH6JsFaDzTF1-22" value="&lt;span style=&quot;background-color: light-dark(#ffffff, var(--ge-dark-color, #121212));&quot;&gt;AEC STUDIO CLUSTER / NAMESPACE&lt;/span&gt;" style="text;html=1;align=left;verticalAlign=middle;whiteSpace=wrap;rounded=0;" vertex="1" parent="1">
          <mxGeometry x="120" y="290" width="240" height="30" as="geometry" />
        </mxCell>
        <mxCell id="E_dDcokZDH6JsFaDzTF1-23" value="&lt;span style=&quot;background-color: light-dark(#ffffff, var(--ge-dark-color, #121212));&quot;&gt;AEC CHECKOUT CLUSTER / NAMESPACE&lt;/span&gt;" style="text;html=1;align=left;verticalAlign=middle;whiteSpace=wrap;rounded=0;" vertex="1" parent="1">
          <mxGeometry x="120" y="890" width="280" height="30" as="geometry" />
        </mxCell>
        <mxCell id="E_dDcokZDH6JsFaDzTF1-27" style="edgeStyle=orthogonalEdgeStyle;rounded=0;orthogonalLoop=1;jettySize=auto;html=1;" edge="1" parent="1" source="E_dDcokZDH6JsFaDzTF1-24" target="E_dDcokZDH6JsFaDzTF1-3">
          <mxGeometry relative="1" as="geometry" />
        </mxCell>
        <mxCell id="E_dDcokZDH6JsFaDzTF1-28" value="Get (File Path)" style="edgeLabel;html=1;align=center;verticalAlign=middle;resizable=0;points=[];" vertex="1" connectable="0" parent="E_dDcokZDH6JsFaDzTF1-27">
          <mxGeometry x="0.1278" relative="1" as="geometry">
            <mxPoint as="offset" />
          </mxGeometry>
        </mxCell>
        <mxCell id="E_dDcokZDH6JsFaDzTF1-40" value="can this DB shared ? if different clusters&lt;br&gt;or&lt;br&gt;Need to keep a copy through web hooks or etc" style="edgeLabel;html=1;align=center;verticalAlign=middle;resizable=0;points=[];" vertex="1" connectable="0" parent="E_dDcokZDH6JsFaDzTF1-27">
          <mxGeometry x="0.6595" relative="1" as="geometry">
            <mxPoint as="offset" />
          </mxGeometry>
        </mxCell>
        <mxCell id="E_dDcokZDH6JsFaDzTF1-32" style="edgeStyle=orthogonalEdgeStyle;rounded=0;orthogonalLoop=1;jettySize=auto;html=1;entryX=0;entryY=0.5;entryDx=0;entryDy=0;" edge="1" parent="1" source="E_dDcokZDH6JsFaDzTF1-24" target="E_dDcokZDH6JsFaDzTF1-30">
          <mxGeometry relative="1" as="geometry">
            <Array as="points">
              <mxPoint x="220" y="1120" />
              <mxPoint x="380" y="1120" />
              <mxPoint x="380" y="1080" />
            </Array>
          </mxGeometry>
        </mxCell>
        <mxCell id="E_dDcokZDH6JsFaDzTF1-38" value="GET &amp;amp; CLONE" style="edgeLabel;html=1;align=center;verticalAlign=middle;resizable=0;points=[];" vertex="1" connectable="0" parent="E_dDcokZDH6JsFaDzTF1-32">
          <mxGeometry x="0.4935" relative="1" as="geometry">
            <mxPoint as="offset" />
          </mxGeometry>
        </mxCell>
        <mxCell id="E_dDcokZDH6JsFaDzTF1-33" style="edgeStyle=orthogonalEdgeStyle;rounded=0;orthogonalLoop=1;jettySize=auto;html=1;entryX=0;entryY=0.5;entryDx=0;entryDy=0;" edge="1" parent="1" source="E_dDcokZDH6JsFaDzTF1-24" target="E_dDcokZDH6JsFaDzTF1-31">
          <mxGeometry relative="1" as="geometry">
            <Array as="points">
              <mxPoint x="220" y="1120" />
              <mxPoint x="380" y="1120" />
              <mxPoint x="380" y="1160" />
            </Array>
          </mxGeometry>
        </mxCell>
        <mxCell id="E_dDcokZDH6JsFaDzTF1-39" value="STORE&lt;br&gt;&lt;div style=&quot;text-align: left;&quot;&gt;&lt;span style=&quot;background-color: light-dark(#ffffff, var(--ge-dark-color, #121212)); color: light-dark(rgb(0, 0, 0), rgb(255, 255, 255));&quot;&gt;1. Program Folder&lt;/span&gt;&lt;/div&gt;&lt;div style=&quot;text-align: left;&quot;&gt;&lt;span style=&quot;background-color: light-dark(#ffffff, var(--ge-dark-color, #121212)); color: light-dark(rgb(0, 0, 0), rgb(255, 255, 255));&quot;&gt;2. Timestamp&lt;/span&gt;&lt;/div&gt;" style="edgeLabel;html=1;align=center;verticalAlign=middle;resizable=0;points=[];" vertex="1" connectable="0" parent="E_dDcokZDH6JsFaDzTF1-33">
          <mxGeometry x="0.4886" relative="1" as="geometry">
            <mxPoint as="offset" />
          </mxGeometry>
        </mxCell>
        <mxCell id="E_dDcokZDH6JsFaDzTF1-24" value="STUDIO&lt;br&gt;NODE BE" style="rounded=0;whiteSpace=wrap;html=1;fillColor=none;" vertex="1" parent="1">
          <mxGeometry x="160" y="970" width="120" height="60" as="geometry" />
        </mxCell>
        <mxCell id="E_dDcokZDH6JsFaDzTF1-29" value="CDN&lt;br&gt;Storage" style="shape=cylinder3;whiteSpace=wrap;html=1;boundedLbl=1;backgroundOutline=1;size=15;" vertex="1" parent="1">
          <mxGeometry x="660" y="1070" width="60" height="80" as="geometry" />
        </mxCell>
        <mxCell id="E_dDcokZDH6JsFaDzTF1-30" value="STUDIO&lt;br&gt;STORAGE" style="rounded=0;whiteSpace=wrap;html=1;fillColor=none;" vertex="1" parent="1">
          <mxGeometry x="480" y="1050" width="120" height="60" as="geometry" />
        </mxCell>
        <mxCell id="E_dDcokZDH6JsFaDzTF1-31" value="CHECKOUT&lt;br&gt;STORAGE" style="rounded=0;whiteSpace=wrap;html=1;fillColor=none;" vertex="1" parent="1">
          <mxGeometry x="480" y="1130" width="120" height="60" as="geometry" />
        </mxCell>
        <mxCell id="E_dDcokZDH6JsFaDzTF1-36" style="edgeStyle=orthogonalEdgeStyle;rounded=0;orthogonalLoop=1;jettySize=auto;html=1;entryX=0;entryY=0.588;entryDx=0;entryDy=0;entryPerimeter=0;" edge="1" parent="1" source="E_dDcokZDH6JsFaDzTF1-31" target="E_dDcokZDH6JsFaDzTF1-29">
          <mxGeometry relative="1" as="geometry" />
        </mxCell>
        <mxCell id="E_dDcokZDH6JsFaDzTF1-37" style="edgeStyle=orthogonalEdgeStyle;rounded=0;orthogonalLoop=1;jettySize=auto;html=1;entryX=0.007;entryY=0.589;entryDx=0;entryDy=0;entryPerimeter=0;" edge="1" parent="1" source="E_dDcokZDH6JsFaDzTF1-30" target="E_dDcokZDH6JsFaDzTF1-29">
          <mxGeometry relative="1" as="geometry" />
        </mxCell>
        <mxCell id="E_dDcokZDH6JsFaDzTF1-44" value="STUDIO&lt;br&gt;BE" style="rounded=0;whiteSpace=wrap;html=1;fillColor=none;" vertex="1" parent="1">
          <mxGeometry x="640" y="130" width="120" height="60" as="geometry" />
        </mxCell>
        <mxCell id="E_dDcokZDH6JsFaDzTF1-52" value="&lt;b&gt;Publish Flow from Checkout BE&lt;/b&gt;" style="text;html=1;align=left;verticalAlign=middle;whiteSpace=wrap;rounded=0;" vertex="1" parent="1">
          <mxGeometry x="120" y="720" width="200" height="30" as="geometry" />
        </mxCell>
        <mxCell id="E_dDcokZDH6JsFaDzTF1-53" value="" style="endArrow=none;dashed=1;html=1;rounded=0;" edge="1" parent="1">
          <mxGeometry width="50" height="50" relative="1" as="geometry">
            <mxPoint x="40" y="750" as="sourcePoint" />
            <mxPoint x="800" y="750" as="targetPoint" />
          </mxGeometry>
        </mxCell>
        <mxCell id="E_dDcokZDH6JsFaDzTF1-55" style="edgeStyle=orthogonalEdgeStyle;rounded=0;orthogonalLoop=1;jettySize=auto;html=1;entryX=0.5;entryY=0;entryDx=0;entryDy=0;entryPerimeter=0;" edge="1" parent="1" source="E_dDcokZDH6JsFaDzTF1-5" target="E_dDcokZDH6JsFaDzTF1-4">
          <mxGeometry relative="1" as="geometry">
            <Array as="points">
              <mxPoint x="690" y="360" />
            </Array>
          </mxGeometry>
        </mxCell>
        <mxCell id="E_dDcokZDH6JsFaDzTF1-56" style="edgeStyle=orthogonalEdgeStyle;rounded=0;orthogonalLoop=1;jettySize=auto;html=1;entryX=0;entryY=0.5;entryDx=0;entryDy=0;entryPerimeter=0;" edge="1" parent="1" source="E_dDcokZDH6JsFaDzTF1-6" target="E_dDcokZDH6JsFaDzTF1-4">
          <mxGeometry relative="1" as="geometry" />
        </mxCell>
        <mxCell id="E_dDcokZDH6JsFaDzTF1-57" style="edgeStyle=orthogonalEdgeStyle;rounded=0;orthogonalLoop=1;jettySize=auto;html=1;entryX=0.5;entryY=1;entryDx=0;entryDy=0;entryPerimeter=0;" edge="1" parent="1" source="E_dDcokZDH6JsFaDzTF1-15" target="E_dDcokZDH6JsFaDzTF1-4">
          <mxGeometry relative="1" as="geometry" />
        </mxCell>
      </root>
    </mxGraphModel>
  </diagram>
</mxfile>
